<svg width="30" height="26" viewBox="0 0 30 26" fill="none" xmlns="http://www.w3.org/2000/svg">
<rect width="30" height="26" fill="#E5E5E5"/>
<rect width="375" height="2580" transform="translate(-325 -10)" fill="white"/>
<path d="M26 0H4C1.79086 0 0 1.8625 0 4.16V21.84C0 24.1375 1.79086 26 4 26H26C28.2091 26 30 24.1375 30 21.84V4.16C30 1.8625 28.2091 0 26 0Z" fill="#C23F81"/>
<path d="M23 6H6C5.44772 6 5 6.44772 5 7C5 7.55228 5.44772 8 6 8H23C23.5523 8 24 7.55228 24 7C24 6.44772 23.5523 6 23 6Z" fill="white"/>
<path d="M17 12H6C5.44772 12 5 12.4477 5 13C5 13.5523 5.44772 14 6 14H17C17.5523 14 18 13.5523 18 13C18 12.4477 17.5523 12 17 12Z" fill="white"/>
<path d="M23 18H6C5.44772 18 5 18.4477 5 19C5 19.5523 5.44772 20 6 20H23C23.5523 20 24 19.5523 24 19C24 18.4477 23.5523 18 23 18Z" fill="white"/>
</svg>
