<svg width="30" height="30" viewBox="0 0 30 30" fill="none" xmlns="http://www.w3.org/2000/svg">
<path d="M20.446 17.763C22.0522 15.4938 22.7617 12.7103 22.4377 9.94912C22.1138 7.18789 20.7793 4.64427 18.6915 2.80843C16.6036 0.972589 13.9102 -0.0255506 11.1302 0.00635726C8.35023 0.0382651 5.68042 1.09796 3.63528 2.98124C1.59014 4.86452 0.314402 7.4381 0.0539029 10.206C-0.206596 12.974 0.566582 15.7404 2.22444 17.9722C3.8823 20.2039 6.30752 21.7431 9.03274 22.2932C11.758 22.8432 14.5903 22.3651 16.984 20.951L25.284 29.201C25.7165 29.6445 26.3063 29.8997 26.9257 29.9116C27.545 29.9234 28.1441 29.6908 28.5932 29.2641C29.0424 28.8375 29.3054 28.2511 29.3254 27.632C29.3454 27.0128 29.1207 26.4107 28.7 25.956C28.672 25.926 28.644 25.898 28.614 25.87L20.446 17.763ZM11.252 18.532C9.32833 18.5314 7.4837 17.7666 6.12382 16.406C4.76394 15.0455 4.00017 13.2004 4.0005 11.2768C4.00083 9.3531 4.76523 7.50834 6.12559 6.14822C7.48594 4.7881 9.33083 4.02402 11.2545 4.02402C13.1782 4.02402 15.0231 4.7881 16.3834 6.14822C17.7438 7.50834 18.5082 9.3531 18.5085 11.2768C18.5088 13.2004 17.7451 15.0455 16.3852 16.406C15.0253 17.7666 13.1807 18.5314 11.257 18.532H11.252Z" fill="white"/>
</svg>
